<svg xmlns="http://www.w3.org/2000/svg" xmlns:xlink="http://www.w3.org/1999/xlink" viewBox="0 0 1262.92 787.26">
  <defs>
    <linearGradient id="linear-gradient-p2" x1="1031.27" y1="425.6" x2="1025.56" y2="413.21" gradientUnits="userSpaceOnUse">
      <stop offset=".27" stop-color="#cc7a6d"/>
      <stop offset=".89" stop-color="#934535"/>
    </linearGradient>
    <linearGradient id="linear-gradient-p2-2" x1="924.4" y1="326.57" x2="1114.49" y2="442.36" gradientUnits="userSpaceOnUse">
      <stop offset=".15" stop-color="#c49c6e"/>
      <stop offset=".52" stop-color="#36281c"/>
    </linearGradient>
    <linearGradient id="linear-gradient-p2-3" x1="995.3" y1="374.4" x2="1047.55" y2="407.19" gradientUnits="userSpaceOnUse">
      <stop offset=".08" stop-color="#33261a" stop-opacity="0"/>
      <stop offset=".49" stop-color="#33261a"/>
      <stop offset=".9" stop-color="#33261b" stop-opacity="0"/>
    </linearGradient>
    <linearGradient id="linear-gradient-p2-4" x1="991.92" y1="401.89" x2="1025.4" y2="383.25" gradientUnits="userSpaceOnUse">
      <stop offset=".17" stop-color="#fff8e8" stop-opacity=".4"/>
      <stop offset=".24" stop-color="#fdf9e9" stop-opacity=".36"/>
      <stop offset=".38" stop-color="#f7faeb" stop-opacity=".26"/>
      <stop offset=".55" stop-color="#eefdf0" stop-opacity=".1"/>
      <stop offset=".64" stop-color="#e9fff2" stop-opacity="0"/>
    </linearGradient>
    <linearGradient id="linear-gradient-p2-5" x1="898.92" y1="584.68" x2="878.24" y2="633.46" gradientUnits="userSpaceOnUse">
      <stop offset=".1" stop-color="#7a5e36"/>
      <stop offset=".26" stop-color="#ad8f66"/>
      <stop offset=".41" stop-color="#7a5e36"/>
    </linearGradient>
    <linearGradient id="linear-gradient-p2-6" x1="954.77" y1="464" x2="960.31" y2="777.45" gradientUnits="userSpaceOnUse">
      <stop offset=".17" stop-color="#c487ad"/>
      <stop offset=".47" stop-color="#875274"/>
    </linearGradient>
    <linearGradient id="linear-gradient-p2-7" x1="973.27" y1="493.16" x2="1005.53" y2="588.2" gradientUnits="userSpaceOnUse">
      <stop offset=".19" stop-color="#c487ad"/>
      <stop offset=".36" stop-color="#875274"/>
    </linearGradient>
    <linearGradient id="linear-gradient-p2-8" x1="951.3" y1="489.86" x2="962.6" y2="516.73" gradientUnits="userSpaceOnUse">
      <stop offset=".45" stop-color="#fff8e8" stop-opacity=".4"/>
      <stop offset=".53" stop-color="#fdf9e9" stop-opacity=".36"/>
      <stop offset=".65" stop-color="#f7faeb" stop-opacity=".26"/>
      <stop offset=".81" stop-color="#eefdf0" stop-opacity=".1"/>
      <stop offset=".9" stop-color="#e9fff2" stop-opacity="0"/>
    </linearGradient>
    <linearGradient id="linear-gradient-p2-9" x1="959.26" y1="586.99" x2="947.19" y2="629.15" href="#linear-gradient-p2-5"/>
    <linearGradient id="linear-gradient-p2-10" x1="1274.78" y1="544.37" x2="1275.26" y2="544.37" gradientUnits="userSpaceOnUse">
      <stop offset=".19" stop-color="#c487b8"/>
      <stop offset=".56" stop-color="#875274"/>
    </linearGradient>
    <linearGradient id="linear-gradient-p2-11" x1="1021.54" y1="515.23" x2="1045.17" y2="487.93" gradientUnits="userSpaceOnUse">
      <stop offset=".08" stop-color="#c487ad"/>
      <stop offset=".14" stop-color="#875274"/>
    </linearGradient>
    <linearGradient id="linear-gradient-p2-12" x1="989.25" y1="470.58" x2="999.99" y2="470.86" gradientUnits="userSpaceOnUse">
      <stop offset=".1" stop-color="#d89484"/>
      <stop offset=".94" stop-color="#aa5744"/>
    </linearGradient>
    <linearGradient id="linear-gradient-p2-13" x1="1006.24" y1="433.42" x2="992.77" y2="462.07" gradientUnits="userSpaceOnUse">
      <stop offset=".08" stop-color="#8b8ec6"/>
      <stop offset="1" stop-color="#666baa"/>
    </linearGradient>
    <linearGradient id="linear-gradient-p2-14" x1="981.45" y1="447.63" x2="1021.14" y2="462.44" gradientUnits="userSpaceOnUse">
      <stop offset=".12" stop-color="#fff8e8" stop-opacity=".4"/>
      <stop offset=".22" stop-color="#fdf9e9" stop-opacity=".36"/>
      <stop offset=".38" stop-color="#f7faeb" stop-opacity=".26"/>
      <stop offset=".59" stop-color="#eefdf0" stop-opacity=".1"/>
      <stop offset=".7" stop-color="#e9fff2" stop-opacity="0"/>
    </linearGradient>
    <linearGradient id="linear-gradient-p2-15" x1="978.39" y1="484.12" x2="993.7" y2="477.18" gradientTransform="translate(.72 -.29)" gradientUnits="userSpaceOnUse">
      <stop offset=".13" stop-color="#d8a293"/>
      <stop offset=".89" stop-color="#c38372"/>
    </linearGradient>
    <linearGradient id="linear-gradient-p2-16" x1="974.65" y1="469.64" x2="966.47" y2="477.82" gradientTransform="rotate(-6.85 977.205 464.872)" gradientUnits="userSpaceOnUse">
      <stop offset=".38" stop-color="#d7a192"/>
      <stop offset="1" stop-color="#c07e6d"/>
    </linearGradient>
    <linearGradient id="linear-gradient-p2-17" x1="998.45" y1="459.04" x2="1050.47" y2="475.41" gradientUnits="userSpaceOnUse">
      <stop offset=".15" stop-color="#7373ad"/>
      <stop offset=".8" stop-color="#4e4ea1"/>
    </linearGradient>
    <linearGradient id="linear-gradient-p2-18" x1="994.61" y1="476.55" x2="1057.01" y2="518.78" gradientUnits="userSpaceOnUse">
      <stop offset="0" stop-color="#8b97c9"/>
      <stop offset=".21" stop-color="#494982"/>
      <stop offset=".97" stop-color="#454472"/>
    </linearGradient>
    <linearGradient id="linear-gradient-p2-19" x1="989.59" y1="442.48" x2="1024.9" y2="455.65" href="#linear-gradient-p2-14"/>
    <linearGradient id="linear-gradient-p2-20" x1="1033.09" y1="457.71" x2="1011" y2="493.71" gradientTransform="rotate(-4.78 1019.944 468.107)" gradientUnits="userSpaceOnUse">
      <stop offset=".68" stop-color="#e09d8c"/>
      <stop offset=".88" stop-color="#aa5744"/>
    </linearGradient>
    <linearGradient id="linear-gradient-p2-21" x1="1042.91" y1="499.12" x2="1053.91" y2="431.31" gradientTransform="rotate(-4.78 1019.944 468.107)" gradientUnits="userSpaceOnUse">
      <stop offset="0" stop-color="#7373ac"/>
      <stop offset=".79" stop-color="#5858a2"/>
    </linearGradient>
    <linearGradient id="linear-gradient-p2-22" x1="997.88" y1="460.86" x2="993.1" y2="469.91" gradientTransform="rotate(-4.78 1019.944 468.107)" gradientUnits="userSpaceOnUse">
      <stop offset=".54" stop-color="#df9c8c"/>
      <stop offset="1" stop-color="#ce8674"/>
    </linearGradient>
    <linearGradient id="linear-gradient-p2-23" x1="980.73" y1="459.55" x2="995.92" y2="465.21" gradientTransform="rotate(-4.78 1019.944 468.107)" gradientUnits="userSpaceOnUse">
      <stop offset=".23" stop-color="#fff8e8" stop-opacity=".4"/>
      <stop offset=".35" stop-color="#fdf9e9" stop-opacity=".36"/>
      <stop offset=".54" stop-color="#f7faeb" stop-opacity=".26"/>
      <stop offset=".79" stop-color="#eefdf0" stop-opacity=".1"/>
      <stop offset=".92" stop-color="#e9fff2" stop-opacity="0"/>
    </linearGradient>
    <radialGradient id="radial-gradient-p2" cx="983.36" cy="324.1" r="31.76" gradientTransform="matrix(.96 0 0 .95 68.11 87.22)" gradientUnits="userSpaceOnUse">
      <stop offset=".32" stop-color="#e1a092"/>
      <stop offset="1" stop-color="#bc7871"/>
    </radialGradient>
    <style>
      .cls-p2-7{fill:#d99d7c}.cls-p2-9{fill:#705b3d}.cls-p2-10,.cls-p2-26{fill:none;stroke-miterlimit:10}.cls-p2-10{stroke:#c9b597;stroke-width:.5px}.cls-p2-26{stroke:#b6b8d6}
    </style>
  </defs>

  <g id="person2">
    <path id="neck_p2" d="M1037.54 424s-5.12 5.46-11.26 5.93-8.42-3.33-8.32-3a18.37 18.37 0 0 0 1-4.74v-10.74s2.34-7 8.48-6.78 8.84 1.68 8.84 1.68 0 .55-.1 1.43c-.11 1.88-.11 4.36 0 7.68a31.39 31.39 0 0 0 1.36 8.54Z" fill="url(#linear-gradient-p2)"/>
    <g id="head_p2">
      <path d="M1043.56 400.71v.1a6.28 6.28 0 0 1-.55 2.83 6.64 6.64 0 0 1-4 3.3c-1.44.42-2.13 0-3.06.63-1.42.94-1.37 3-1.62 3.79-1.83 5.56-9.87 11.1-16.63 9.84l-.42-.09c-4.7-1.09-7.3-5.23-8.62-7.38-2.86-4.65-3-9.17-3.1-15.21v-.77c-.07-6.24-.09-9.38 1.71-12.33a15.24 15.24 0 0 1 6-5.48 16 16 0 0 1 9.09-1.82c7.79.81 13.4 7.53 14.2 13.19.53 3.67-.92 7.42.37 8 .46.2 1-.13 1.61-.61s1.1-1 1.67-1.34a1.92 1.92 0 0 1 1.59-.35h.17a4.05 4.05 0 0 1 1.61 3.17c-.03.23-.02.38-.02.53Z" fill="url(#radial-gradient-p2)"/>
      <path d="M1048.19 397.57a9.51 9.51 0 0 1-1.76 3.42c-1.39 1.79-3.06 2.91-3.42 2.63s.55-1.06.55-2.83v-.56c-.09-1.15-.5-2.78-1.61-3.17H1041.8a2.48 2.48 0 0 0-1.61.32 6 6 0 0 0-.73.44 3.87 3.87 0 0 0-.94.9c-.19.24-.35.48-.49.69a8.37 8.37 0 0 0-.89 1.92c-.2.62-.32 1-.66 1.09-.53.11-1.1-.62-1.5-1.12a6.28 6.28 0 0 1-1.14-2.89c-.1-.49-.13-.85-.29-2.49-.12-1.44-.14-2.28-.23-2.9-.54-4-5.16-6.47-6.64-7.26a16.67 16.67 0 0 0-12.09-1.28c-.89.22-1.55.45-1.91.57-2.07.72-5.39 1.87-6.18 4.45a23.54 23.54 0 0 0-.13 4.9c0 1.53.07 2.36 0 2.9a1.67 1.67 0 0 1-.35.87 1.69 1.69 0 0 1-.45.39 5.31 5.31 0 0 1-3.53.31 9.51 9.51 0 0 1-1-.23c-3-.86-6.33-3.67-5.94-6.1s4-2.56 4.52-5.14c.24-1.22-.58-1.81-2.14-4.7a36.36 36.36 0 0 1-2.62-5.85 12.22 12.22 0 0 1 3.34-11.72 11 11 0 0 1 5.4-2.59 15.88 15.88 0 0 1 7.88.54 11.35 11.35 0 0 1 4 2.29c1.1 1 2 2.58 3.69 2.7s2.17-1.26 4.82-2.25l.7-.24a8.51 8.51 0 0 1 5.84 0 7.9 7.9 0 0 1 4 3.92c.86 2.08 0 3.33.91 4.11 1.11.91 2.63-.58 5.33-.18a8.75 8.75 0 0 1 4.53 2.42 11.3 11.3 0 0 1 4 6.56c.39 2.51-.73 2.75-1.14 6.7-.53 4.58.84 5.35.03 8.46Z" fill="url(#linear-gradient-p2-2)"/>
      <path d="M1037.06 401.29c-.2.62-.31 1-.66 1.09-.52.11-1.1-.62-1.49-1.12a6.28 6.28 0 0 1-1.14-2.89 22.18 22.18 0 0 1-.29-2.49c-.13-1.44-.14-2.28-.23-2.9-.55-4-5.17-6.47-6.65-7.26-6.23-3.4-12.55-1.21-14-.71-2.08.72-5.4 1.87-6.18 4.45a23.54 23.54 0 0 0-.13 4.9c0 1.53.06 2.36 0 2.9 0 .29-.24 1.08-.55 1.1s-.43-.47-.74-1.1c-.78-1.55-1.21-1.68-1.46-2.37-.51-1.38.54-2.71 1-3.89 1.89-4.61-4.17-9.35-2.4-12.18 1.06-1.7 4.1-1.55 4.63-1.52 2.76.12 3.45 1.88 7.22 3.11a11.42 11.42 0 0 0 5.37.78c4.37-.64 5.83-4.59 8.15-3.89 1.33.4 2 2.06 2.4 3 1.07 2.67-.33 3.76.77 5.17s2.77 1 4.75 3.09a3 3 0 0 1 .54.78c1.43 2.78.36 7 .36 7s-.08.82-.08 1.8c.05 1.34.19 2.86.81 3.15Z" opacity=".67" fill="url(#linear-gradient-p2-3)"/>
      <path d="M1014.39 414.44s2-1.69 3.09-1.61 2.83 1.61 2.83 1.61-2.06 1.61-3 1.52a10.54 10.54 0 0 1-2.92-1.52Z" fill="#b5646a"/>
      <path d="m1017.65 421.2-.42-.09c-4.7-1.09-7.3-5.23-8.62-7.38-2.86-4.65-3-9.17-3.1-15.21a5.31 5.31 0 0 1-3.53.31 9.51 9.51 0 0 1-1-.23c-3-.86-6.33-3.67-5.94-6.1s4-2.56 4.52-5.14c.24-1.22-.58-1.81-2.14-4.7a36.36 36.36 0 0 1-2.62-5.85 12.22 12.22 0 0 1 3.34-11.72 11 11 0 0 1 5.4-2.59c4.29 4.31 7.69 11.72 9.64 17.44a12.89 12.89 0 0 1 1.34 4.5c0 1.5-.35 2-.64 3.6a18.17 18.17 0 0 0 .59 8.06c.57 2.24 1.2 3.23 1.37 5.74a20.13 20.13 0 0 1 0 2.34c-.11 3.56-.57 4.15-.59 6.54s0 3.79.7 5.25a10.59 10.59 0 0 1 1.66 4.29 8.85 8.85 0 0 1 .04.94Z" fill="url(#linear-gradient-p2-4)"/>
    </g>
    <g id="right_leg_p2" data-name="right leg">
      <g id="right_foot_p2" data-name="right foot">
        <path id="right_ankle_p2" data-name="right ankle" class="cls-p2-7" d="M902 581s-3.84 9.53-6 10.65c3 3.51 9.1 4.91 9.1 4.91s5.82-6.17 8-10.94S902 581 902 581Z"/>
        <path d="M907.11 602.42c-.47.46-2.29.48-2.29.48s-6.34-.12-9-.12c-1 0-3 .05-5.41.08h-2c-4 0-8.36 0-10.59-.23-.78-1.5-1-1.49-.76-3.32 6-2.43 10.92-3.88 10.92-3.88l.56-.17a17.13 17.13 0 0 0 4.34-1.84 9.45 9.45 0 0 1 1-.69c1.23-.84 2.78-1.73 2.78-1.73a9.3 9.3 0 0 0 3.66 2.89 26 26 0 0 0 6.71 1.5v.22c0 .08.07.62.11 1.12.09 1 .21 2.41.24 3.58a.24.24 0 0 1 0 .12 4.37 4.37 0 0 1-.27 1.99Z" fill="url(#linear-gradient-p2-5)"/>
        <path class="cls-p2-9" d="M907.28 600.45a19.07 19.07 0 0 0-5.39-3.49c-6.64-2.79-13.24-.84-13.42-1.68a17.13 17.13 0 0 0 4.34-1.84 9.45 9.45 0 0 1 1-.69c1.23-.84 2.78-1.73 2.78-1.73a9.3 9.3 0 0 0 3.66 2.89 26 26 0 0 0 6.71 1.5v.22c.12 1.56.23 3.13.35 4.7-.04.03-.03.08-.03.12Z"/>
        <path class="cls-p2-10" d="m907.29 600.92-30.27.31"/>
      </g>
      <path d="m1014.31 502.74-3 20.57s-16.74 5.58-24.65 7.71c-1.26.33-2.29.58-3 .71-3.79 1.68-29.55 1.49-34.73.93 0 2.25-14.9 30.39-35.16 56.29-3.18-.79-6.08-3.05-8.57-4.3a46.44 46.44 0 0 0-7.15-2.43s11.82-23.49 21.12-42.14c3.92-7.89 7.4-14.9 9.34-18.91.8-1.64 1.34-2.78 1.55-3.27.19-2.44 2.65-3.93 4.92-5.24l.14-.07c3.27-1.34 40.8-5.75 50.79-8.23 1.18-.3 6.46-2.54 6.46-2.54l2.42-1.48 5.34-.73Z" fill="url(#linear-gradient-p2-6)"/>
      <path id="right_leg_shadow_p2" data-name="right leg shadow" d="m1014.31 502.74-3 20.57s-22.44 7.49-27.65 8.42c-3.79 1.68-29.55 1.49-34.73.93a82.49 82.49 0 0 0 27.86-14 81.22 81.22 0 0 0 18.48-20.09Z" opacity=".74" fill="url(#linear-gradient-p2-7)"/>
      <path d="M992.33 501.82c0 .05-11.7 6.74-13.52 7.54a141 141 0 0 1-39.46 11.15c-4.88.6-8.05 1-10.88.66.8-1.64 1.34-2.78 1.55-3.27.19-2.44 2.65-3.93 4.92-5.24l.89-.29c7.64-1.51 16.65-2.69 16.65-2.69 9.8-1.4 16.91-2.44 26.38-3.92a40.91 40.91 0 0 0 13.47-3.94Z" fill="url(#linear-gradient-p2-8)"/>
    </g>
    <g id="left_leg_p2" data-name="left leg">
      <g id="left_foot_p2" data-name="left foot">
        <path id="left_ankle_p2" data-name="left ankle" class="cls-p2-7" d="M957 592.51s5.54-7.16 4.4-10.38c-.57-2.84 14.24 1.49 13.5 3.08s-5.68 10.1-7.67 11.36-10.23-4.06-10.23-4.06Z"/>
        <path d="M970.12 602.85c-1.41.62-26.88.41-29.93.06-.13-.81-.72-2.81.56-4a15.59 15.59 0 0 1 5.08-3.09l.75-.28.63-.1h.07l.58-.12a45.58 45.58 0 0 0 6.71-2.3l.72-.31c.22-.08.42-.18.61-.26l.43-.19c.22-.1.43-.19.64-.3l.3-.14c.19.11 1.72 1 2.83 1.65a16.53 16.53 0 0 0 5.15 1.55c.29.05.58.09.9.12l1.09.11h.2c.6 0 1.13.06 1.3.06a14.32 14.32 0 0 0 1.26 4.39c.19 1.7.5 2.58.12 3.15Z" fill="url(#linear-gradient-p2-9)"/>
        <path class="cls-p2-9" d="M970 599.72c-.71.44-7.82-.5-10.13-1.07a12.42 12.42 0 0 0-2.81-2.11 9.78 9.78 0 0 0-5.05-1.42 33 33 0 0 0-4.17.19 45.58 45.58 0 0 0 6.71-2.3l.72-.31c.22-.08.42-.18.61-.26l.43-.19c.22-.1.43-.19.64-.3l.32-.13c.19.11 1.72 1 2.83 1.65a16.53 16.53 0 0 0 5.15 1.55 5.74 5.74 0 0 0 .9.12l1.09.11h.2c.6 0 1.13.06 1.3.06a14.32 14.32 0 0 0 1.26 4.41Z"/>
        <path class="cls-p2-10" d="M939.94 600.45a18.33 18.33 0 0 0 4.07.47c2 0 6.42.37 13 0s13.16 0 13.16 0"/>
      </g>
      <path id="left_leg-2_p2" data-name="left leg" d="M1048.26 521.82a12.38 12.38 0 0 1-1.93 4.12c-1.29 1.67-13.28 6.12-40.46 9.21-8.55 17.58-13.55 27.61-30.2 52.3-3.51-.43-5.12-1.48-7.29-2.42s-8.25-1.69-8.25-1.69L987 519c1.32-3.18 3.6-4.3 8.34-8s15.53-1.49 18.31-3.63a4.76 4.76 0 0 0 .91-.88 6.93 6.93 0 0 0 1.33-2.64 9.25 9.25 0 0 0 .28-2.54l25.27 3.9 6 .92.79.13v.32c.29 1.81 1.29 11.05.03 15.24Z" fill="url(#linear-gradient-p2-10)"/>
      <path id="left_leg_shadow_p2" data-name="left leg shadow" d="M1048.26 521.82a12.38 12.38 0 0 1-1.93 4.12c-2.92-2-4.76-6.87-11.34-12.18-4.5-3.63-21.19-7.56-21.19-7.56s-12.46-6.4-12.23-7.26c9.08.33 37.82 7.37 39.13 6.59a3.36 3.36 0 0 1 .77-.35 8.49 8.49 0 0 1 6 .92c.28.14.56.28.83.45.22 1.84 1.22 11.08-.04 15.27Z" opacity=".72" fill="url(#linear-gradient-p2-11)"/>
    </g>
    <g id="right_arm_p2" data-name="right arm">
      <path id="right_upper_arm_p2" data-name="right upper arm" d="M999.93 464.72s-.06 1.86-.17 4.4c-.2 4.68-.56 11.63-1 13.26-.75 2.53-2.88 3.09-4.51 1.45a25.14 25.14 0 0 1-3.56-3.92 7.8 7.8 0 0 1-.87-1.73c-.71-2.06-.91-5.75-.82-9.75a91.7 91.7 0 0 1 1-9.69 2.4 2.4 0 0 1 0-.24c.1-.66.18-1.19.22-1.52a1.16 1.16 0 0 1 0-.18v-.2l6.75 2.95Z" fill="url(#linear-gradient-p2-12)"/>
      <path id="rmarm_sleeve_p2" data-name="rmarm sleeve" d="M1009.68 434.94c-.25 9.24-7.29 24.65-9.75 29.78-.53 1.1-.85 1.72-.85 1.72s-7.34-3.92-9.16-6.89c0-.27.05-.54.08-.81a2.4 2.4 0 0 1 0-.24c.06-.52.14-1 .22-1.52a1.16 1.16 0 0 1 0-.18v-.2c.58-3.09 1.51-6 2.41-9.32s1.86-8.06 4.42-12a18.37 18.37 0 0 1 4.85-5.05 10.46 10.46 0 0 1 5-2l2.67 2.71c.14.97.16 2.34.11 4Z" fill="url(#linear-gradient-p2-13)"/>
      <path id="rarm_light_p2" data-name="rarm light" d="M1009.68 434.94c-.25 9.24-7.29 24.65-9.75 29.78 0 0-.06 1.86-.17 4.4-.65 1-1.25 10.43-1.45 12-2.81 2.85-5.6-2.74-7.67-1.24a7.8 7.8 0 0 1-.87-1.73c-.71-2.06-.91-5.75-.82-9.75a91.7 91.7 0 0 1 1-9.69 2.4 2.4 0 0 1 0-.24c.06-.52.14-1 .22-1.52a1.16 1.16 0 0 1 0-.18v-.2c.58-3.09 1.51-6 2.41-9.32s1.86-8.06 4.42-12a18.37 18.37 0 0 1 4.85-5.05 10.46 10.46 0 0 1 5-2l2.67 2.71c.19 1 .21 2.37.16 4.03Z" fill="url(#linear-gradient-p2-14)"/>
      <g id="right_lower_arm_p2" data-name="right lower arm">
        <path id="right_lo_arm_p2" data-name="right lo arm" d="M988.13 475.61c1.26-.13 7.39.74 8.31 2.46.6 1.13.62 4.66.51 5.41s-2.56 2.21-3.07 2.69c-1.59 1.51-5.41 1.15-5.41 1.15s-6.51-.38-10.06-1.79a23.52 23.52 0 0 1-5.55-3s.58-3.84 1.75-4.58 7-.51 9-.82a20.57 20.57 0 0 1 4.52-1.52Z" fill="url(#linear-gradient-p2-15)"/>
        <g id="right_hand_tablet_p2" data-name="right hand + tablet">
          <path d="M952.6 451.63s-.53-.18-.15-1.29c2.1-.21 18.54-.49 18.54-.49l.48.1.65.46 21.44 27.53.1.87-.53.6-18.53-1.09-.57-.18-.65-.57Z" fill="#959dc2" id="tablet_p2"/>
          <path id="right_hand_p2" data-name="right hand" d="M965.5 471a3.71 3.71 0 0 1 2-2.22c1-.28 4.15-1.35 5.61-.39s3.07.4 3.61 2.12 2.09 3.41 2.32 5.27-1.87 2.67-3.5 3-2.08 4.4-2.08 4.4-5.7-3.56-6.67-5.11a8.72 8.72 0 0 1-1.67-3.4 8.37 8.37 0 0 1 .38-3.67Z" fill="url(#linear-gradient-p2-16)"/>
        </g>
      </g>
    </g>
    <g id="shirt_p2">
      <path d="M1054.29 464.58s-4.44 44.31-9.54 57.69a.21.21 0 0 1 0 .06c-1.21 0-4.76-11.78-13.33-12.89-14.27-2.11-14.61-.78-22.33-1.89-3.88-1-9.4-.15-16.69-5.76.76-2.35.72-2.35 1.87-5.53.89-2.23 1.5-5.28 1.88-12.46.07-1.22.11-2.18.14-2.95a55.47 55.47 0 0 1 .5-6.39c.08-.59.17-1.3.29-2.17.06-.46.13-.93.19-1.41.72-5.5 1.43-11.24 1.92-16.15.42-4.16.69-7.72.7-10 1.08-7.8 2.61-12.94 4.94-15.7 1.94-2.29 13.94-5.06 13.94-5.06a10.42 10.42 0 0 0 4.38 3.24c3.5 1.46 10.88-.21 14-4.58 1.34.14 10.13 1.48 16.61 13.32 7.35 13.62.85 27.95.53 28.63Z" fill="url(#linear-gradient-p2-17)"/>
      <path d="M1044.68 522.36c-2.76-4.24-5.39-9.38-9.18-11.38-4.84-2.31-8.39-13.11-11.81-15.67-7.52-5.59-12.4-2.79-21.91-9.12-2.65-1.76-4.52-3.38-5.56-5.31a62.24 62.24 0 0 1 .79-8.56c.06-.46.13-.93.19-1.41a3.31 3.31 0 0 1 .5-.36c3.61-2 8.21 6 20.75 16 7.32 5.82 10.66 9.21 15.94 11.09 8.16 2.89 12 3 15.07 4.15-.46 2.88-3.19 16.7-4.78 20.57Z" fill="url(#linear-gradient-p2-18)"/>
      <path id="shirt_shadow_p2" data-name="shirt shadow" d="M1044.43 440.47c-2.43-.76-5.57 3.56-7 6.08-2.19 3.9.72 11-2.76 25a23.65 23.65 0 0 0-.72 4.55c-.58 10.19 7.15 12.55 8.41 11.83 2.56-1.45 3.07-5.24 4-12.75 1.87-15.34 2.36-20.29 1.16-27.37-.98-5.81-2.09-7.03-3.09-7.34Z" fill="#414672"/>
      <path class="cls-p2-26" d="M1017.49 424.31a10.49 10.49 0 0 0 2.68 3.7c3.56 3 7.93 1.94 9.13 1.58a19 19 0 0 0 9-6.68M993.63 497.88a24.87 24.87 0 0 0 2.4 1.8"/>
      <path d="M1001.35 502.27a24.32 24.32 0 0 0 11.09.83c8-1 17.52-1 24.81 3.33a22.44 22.44 0 0 1 5.81 5.07" stroke-dasharray="5.93 5.93" stroke="#b6b8d6" fill="none" stroke-miterlimit="10"/>
      <path class="cls-p2-26" d="M1044.83 513.88c.53.78 1.05 1.64 1.56 2.57"/>
      <path d="M1008.1 448.68c-.38 6.6 1.63 18-2.92 17.28-1.22-.19-6 .94-6.73 6.82-.58.58-1.15 1.15-1.73 1.71.08-.59.17-1.3.29-2.17.06-.46.13-.93.19-1.41.72-5.5 1.43-11.24 1.92-16.15.42-4.16.69-7.72.7-10 1.08-7.8 2.61-12.94 4.94-15.7 1.94-2.29 11-4.42 13.94-5.06-.44.86-1.72 2.34-3.38 5.34-2.01 3.66-7.01 15.86-7.22 19.34Z" fill="url(#linear-gradient-p2-19)"/>
    </g>
    <g id="left_arm_p2" data-name="left arm">
      <path id="left_arm-2_p2" data-name="left arm" d="M1034.47 475.28s-11.62-.81-15.06-2.92c-3.62-1.24-11.72-5.45-12.55-5.85a17.12 17.12 0 0 0-3.2-.71l-5.77 7.08s18.57 13.8 24.1 15.31c5.56 3.05 16.51 7.67 16.51 7.67s4-7.83 1.86-13.29-5.89-7.29-5.89-7.29Z" fill="url(#linear-gradient-p2-20)"/>
      <path d="M1058.34 448.7s.64 17.57.75 23-.06 21.28-1.38 23.52-3 5-12 3.32a38.58 38.58 0 0 1-7.26-2.68 50.61 50.61 0 0 0-.27-11.14c-.7-4.44-3.76-9.44-3.76-9.44a7.49 7.49 0 0 0 1.88.15 2.23 2.23 0 0 0 1.79-.78 5.71 5.71 0 0 0 .39-1.53 9 9 0 0 0-.09-1.74c-1.17-10-1.73-24.73-.42-29.8 0 0 3-11.33 10.83-10.1s9.54 17.22 9.54 17.22Z" fill="url(#linear-gradient-p2-21)"/>
      <path d="M1050 484.69c-.08 0-.31-.55-1.1-1.71 0 0-3-3.06-4.22-4.13-.79-.66-2.39-1.28-8.33-3.42a2.23 2.23 0 0 0 1.79-.78 5.71 5.71 0 0 0 .39-1.53c1.2-.37 5.68.62 7.47 2.61 3.38 3.75 4.19 8.87 4 8.96Z" fill="#55558e"/>
      <g id="left_hand_p2" data-name="left hand">
        <path d="M993.6 459.65a3.68 3.68 0 0 1-3.75 3.11l-.49-.18c-1.85-.71-3.82-1.42-3.82-1.42a8.81 8.81 0 0 1-3 0c-1-.33-1.74-.27-2.41-1.05-.68-1.33.15-1.06.15-1.06l8.55-.71Z" fill="#d88d7d"/>
        <path d="m1004.42 465.9-5.76 7.1a20.12 20.12 0 0 1-3.42.41 9.38 9.38 0 0 1-2.08-.17 22.4 22.4 0 0 1-3.39-.77c-3.24-2.17-1.81-2.22-1.75-7.58a9.25 9.25 0 0 1 1.33-2.25c1.26-1.62 2.9-2.85 3.86-2.93h.38a9.62 9.62 0 0 1 2.82.87c-.1 0 4.56 3.08 6.82 4.56Z" fill="url(#linear-gradient-p2-22)"/>
        <path d="M1003.23 465.11a1.92 1.92 0 0 1-1.45.44c-1.22-.09-5.87 1.42-6.14 7.35l-.4.48a9.38 9.38 0 0 1-2.08-.17 22.4 22.4 0 0 1-3.39-.77c-3.24-2.17-1.81-2.22-1.75-7.58a9.25 9.25 0 0 1 1.33-2.25c-1.85-.71-3.82-1.42-3.82-1.42a8.81 8.81 0 0 1-3 0c-1-.33-1.74-.27-2.41-1.05-.68-1.33.15-1.06.15-1.06l8.55-.71 4.83 1.27a9.62 9.62 0 0 1 2.82.87c-.16.05 4.53 3.12 6.76 4.6Z" fill="url(#linear-gradient-p2-23)"/>
      </g>
    </g>
  </g>

</svg>
